# xmcd
#
# Track frame offsets:
#	150
#	13503
#	30266
#	44474
#	58622
#	79001
#	92439
#	109572
#	124794
#	140660
#	160086
#	174690
#	192062
#	208852
#	223210
#	241026
#	259185
#	275194
#	292102
#	307568
#
# Disc length: 4281
#
# Revision: 1
# Processed by: cddbd v1.5.1PL0 Copyright (c) Steve Scherf et al.
# Submitted via: audiograbber 1.81.02
# Normalized: r0:TDELIM( - )
#
DISCID=1710b714
DTITLE=Variaus - Line Dance Hits From The Jukebox Vol.2
DYEAR=1900
DGENRE=linedance
TTITLE0=Lee Kernaghan - Bare Essentials
TTITLE1=Jody Jenkins - Country Dance Floor
TTITLE2=Sammy Kershaw and lorrie Morgan - He Drinks Tequila
TTITLE3=The Fables - Dance, Dance, Dance
TTITLE4=Lonestar - You Walked In
TTITLE5=Shaza Leigh - Darlin'
TTITLE6=The Borderers - Fate
TTITLE7=Glenn Rogers - Dream Weaver
TTITLE8=Andy Grigs - You Won't Ever Be Lonely
TTITLE9=Paul Overstreet - Forever and Ever Amen
TTITLE10=Dave Sheriff - Where There's A Will
TTITLE11=Bob Mckinlay - Restless
TTITLE12=Mervyn J. Futter - You Are No Angel
TTITLE13=Don Williams - Tulsa Time
TTITLE14=Redfern and Crookes - Under The Moon
TTITLE15=Chris Raddings - Cheater Senorita
TTITLE16=Blue Dream - Downtown
TTITLE17=Johnny Earle - See You Later Alligator
TTITLE18=Olsen Brothers - Look Up Look Down
TTITLE19=Johnny Rye - The Blue Danube
EXTD=
EXTT0=
EXTT1=
EXTT2=
EXTT3=
EXTT4=
EXTT5=
EXTT6=
EXTT7=
EXTT8=
EXTT9=
EXTT10=
EXTT11=
EXTT12=
EXTT13=
EXTT14=
EXTT15=
EXTT16=
EXTT17=
EXTT18=
EXTT19=
PLAYORDER=
